<?xml version="1.0" encoding="UTF-8"?>
<svg id="a" data-name="Layer 1" xmlns="http://www.w3.org/2000/svg" viewBox="0 0 623 629">
  <defs>
    <style>
      .b {
        fill: #fff;
      }

      .c {
        fill: #dee2e6;
      }
    </style>
  </defs>
  <rect class="c" width="623" height="629"/>
  <path class="b" d="M227.8,303.20001c-9.3,0-16.89999-7.60001-16.89999-16.89999v-101.10002c.2-9.3,8-16.7,17.3-16.5,9,.2,16.2,7.5,16.5,16.5v101.09999c-.10001,9.30002-7.60001,16.90002-16.90001,16.90002h0Z"/>
  <path class="b" d="M395.20001,303.20001c-9.29999,0-16.89999-7.5-16.89999-16.89999h0v-101.10002c.20001-9.3,8-16.7,17.29999-16.5,9,.2,16.20001,7.5,16.5,16.5v101.09999c0,9.30002-7.5,16.90002-16.89999,16.90002Z"/>
  <path class="b" d="M311.5,460.70001c-49.89999,0-95.60001-27.5-119-71.5-4.39999-8.20001-1.3-18.39999,7-22.79999,8.2-4.39999,18.39999-1.29999,22.8,7,26.2,49.29999,87.40001,68,136.7,41.79999,17.79999-9.5,32.39999-24,41.79999-41.79999,4.39999-8.20001,14.60001-11.29999,22.79999-7,8.20001,4.39999,11.29999,14.60001,7,22.79999-23.39996,44-69.19998,71.5-119.09998,71.5Z"/>
</svg>