<svg xmlns="http://www.w3.org/2000/svg" viewBox="0 0 508.2 31"><defs><style>.a,.d{isolation:isolate;}.b{fill:#434d59;}.c{fill:#0e6ef4;}.d,.e{fill:#1b1b1b;}.d{opacity:0.25;}</style></defs><g class="a"><path class="b" d="M8.8,15.2a.1.1,0,0,0,.1.1A3.68,3.68,0,0,1,11.1,19a3.88,3.88,0,0,1-1.4,3.2A6.24,6.24,0,0,1,6,23.3H.4a.37.37,0,0,1-.4-.4V8a.37.37,0,0,1,.4-.4H5.8A6.13,6.13,0,0,1,9.6,8.7a3.82,3.82,0,0,1,1.3,3.2,3.47,3.47,0,0,1-2.1,3.3ZM2.6,10v4.1c0,.1,0,.1.1.1h3a2.88,2.88,0,0,0,1.9-.6A1.86,1.86,0,0,0,8.3,12a1.86,1.86,0,0,0-.7-1.6,2.88,2.88,0,0,0-1.9-.6h-3C2.7,9.9,2.6,9.9,2.6,10ZM7.8,20.5a2.06,2.06,0,0,0,.7-1.7,2.06,2.06,0,0,0-.7-1.7,2.88,2.88,0,0,0-1.9-.6H2.8c-.1,0-.1,0-.1.1V21c0,.1,0,.1.1.1H6A2.79,2.79,0,0,0,7.8,20.5Z"/><path class="b" d="M18,23V16.9L13.5,8.1c0-.1-.1-.1-.1-.2s.1-.2.3-.2h2c.2,0,.3.1.4.3l3.1,6.2.1.1a.1.1,0,0,0,.1-.1L22.5,8c.1-.2.2-.3.4-.3H25c.2,0,.3.1.3.2s0,.1-.1.2l-4.6,8.8V23a.37.37,0,0,1-.4.4H18.3C18.1,23.3,18,23.2,18,23Z"/></g><path class="c" d="M322.8,28.2a12.51,12.51,0,0,0,12.3-12.4,12.3,12.3,0,1,0-12.3,12.4Zm0-2.5a9.78,9.78,0,0,1-9.5-9.9c0-5.3,4.4-9.9,9.5-9.9a9.91,9.91,0,0,1,0,19.8Z"/><path class="c" d="M359.9,11.6c0-4.5-3.9-7.7-8.8-7.7h-9.7V27.8h2.7V19.2h6.4l6.1,8.6h3.1L353.5,19A7.67,7.67,0,0,0,359.9,11.6ZM344.1,6.5h6.5c3.9,0,6.6,1.9,6.6,5.1s-2.7,5.1-6.6,5.1h-6.5Z"/><path class="c" d="M365.8,27.8h2.7V3.9h-2.7Z"/><path class="c" d="M386.9,17.8h6.9v5.7a11.36,11.36,0,0,1-6.6,2.2,9.78,9.78,0,0,1-9.5-9.9c0-5.3,4.4-9.9,9.5-9.9a11.42,11.42,0,0,1,7.5,3L396.6,7a13.6,13.6,0,0,0-9.3-3.7A12.51,12.51,0,0,0,375,15.7a12.58,12.58,0,0,0,12.3,12.4,13.6,13.6,0,0,0,9.3-3.7V15H387v2.8Z"/><path class="c" d="M403.6,27.8h2.7V3.9h-2.7Z"/><path class="c" d="M414.1,27.8h2.7V8.4l14.9,19.5h2.7V3.9h-2.7V23.4L416.8,3.9h-2.7Z"/><path class="c" d="M461.7,27.8h3L454.1,3.9h-3L440.5,27.8h3l2.4-5.4h13.4Zm-14.7-8,5.6-12.6,5.6,12.6Z"/><path class="c" d="M472.6,25.3V3.9h-2.7V27.8h15.8V25.2H472.6Z"/><path class="c" d="M499.7,28.2c5.6,0,8.5-3.1,8.5-6.9,0-4.2-3.3-5.8-7.9-6.9-4.1-1-6.5-1.8-6.5-4.3,0-2.2,2.2-4.1,5.1-4.1a9.77,9.77,0,0,1,6.9,3.1L507.5,7a12.11,12.11,0,0,0-8.4-3.4c-4.6,0-8,3-8,6.8,0,4.1,3,5.6,7.9,6.8,4.2,1,6.5,2,6.5,4.5,0,2.2-1.9,4.2-5.6,4.2a10.92,10.92,0,0,1-7.9-3.4l-1.7,2.1A13.5,13.5,0,0,0,499.7,28.2Z"/><path class="d" d="M292.3,31h2.6V.6h-2.6Z"/><path class="e" d="M208.5,17.6c0,4.9-2.2,4.9-3.4,4.9-1,0-3.4,0-3.4-4.9V3.9H196V18.5c0,5.7,3.7,9.5,9.1,9.5s9.1-3.9,9.1-9.5V3.9h-5.7Z"/><path class="e" d="M264,3.3a12.6,12.6,0,1,0,0,25.2,12.45,12.45,0,0,0,12.7-12.6,11.17,11.17,0,0,0-1-4.8A13.9,13.9,0,0,0,273,7a13.08,13.08,0,0,0-9-3.7Zm0,19.3A6.8,6.8,0,1,1,264.1,9a7,7,0,0,1,4.9,2,6.73,6.73,0,0,1,2,4.8,7.51,7.51,0,0,1-.5,2.6,5.41,5.41,0,0,1-1.5,2.2,8.55,8.55,0,0,1-2.2,1.5A7.22,7.22,0,0,1,264,22.6Z"/><path class="e" d="M104.5,0,92,27.7h6.3l2.4-5.3h7.7l2.4,5.3h6.3Zm-2.4,17.7,2.4-5.8,2.4,5.8Z"/><path class="e" d="M132,3.9h-9.2V27.4h5.8V20.7h3.1c5.8,0,9.3-3.3,9.3-8.4S137.6,3.9,132,3.9Zm3.1,8.5c0,1.9-1.3,3.1-3.6,3.1h-3V9.1h3q3.6.15,3.6,3.3Z"/><path class="e" d="M155.7,3.9h-9.2V27.4h5.8V20.7h3.1c5.8,0,9.3-3.3,9.3-8.4S161.2,3.9,155.7,3.9Zm3.2,8.5c0,1.9-1.3,3.1-3.6,3.1h-3V9.1h3c2.2.1,3.6,1.2,3.6,3.3Z"/><path class="e" d="M181.9,11.4c-4.6-1.2-5.5-1.8-5.5-3.3V8c0-1.3,1.2-2.1,3.3-2.1s4.3.9,6.8,2.5l.1.1,3.3-4.7-.1-.1A16,16,0,0,0,179.9.3c-5.6,0-9.5,3.4-9.5,8.2v.1c0,5.6,3.8,7,8.9,8.3,4.4,1.2,5.2,1.9,5.2,3.1v.1c0,1.5-1.3,2.2-3.6,2.2a11.7,11.7,0,0,1-7.7-3.1l-.1-.1-3.7,4.5.1.1A17,17,0,0,0,180.9,28c6.1,0,9.9-3.3,9.9-8.5C190.5,14.7,187.1,12.8,181.9,11.4Z"/><path class="e" d="M233.3,28.7l-7-11.9-2.1,11h-5.1l5.2-24.6,9.3,15.5,8.8-15.5,5.2,24.6h-5.4l-2.1-10.9Z"/><path class="d" d="M72.7,16.7V14.3H42.3v2.4Z"/></svg>